<svg xmlns="http://www.w3.org/2000/svg" version="1.1" xmlns:xlink="http://www.w3.org/1999/xlink" width="2000" height="184" viewBox="0 0 2000 184"><svg xml:space="preserve" width="2000" height="184" data-version="2" data-id="lg_lXzZ9xOI6KU67CxTIe" viewBox="0 0 502 184" x="0" y="0"><rect width="100%" height="100%" fill="transparent"></rect><g transform="translate(45.44 106.767)scale(1.1862)"><linearGradient id="a" x1="0" x2="1" y1="0" y2="0" gradientUnits="objectBoundingBox"><stop offset="0%" stop-color="#0f3054"></stop><stop offset="49.8%" stop-color="#3b8dcb"></stop><stop offset="100%" stop-color="#0f3054"></stop></linearGradient><path fill="url(#a)" d="m56.8 83.2-1.9-3.3q-.3-.6-.3-1.2c0-.6.1-.8.3-1.2l1.9-3.3v-4c0-.9.5-1.7 1.2-2.1l3.4-2 1.9-3.3c.4-.7 1.2-1.2 2.1-1.2h3.9l3.4-1.9c.7-.4 1.7-.4 2.4 0l2.9 1.7c-2.8-5.6-8.5-9.4-15.3-9.4H26.5c-9.3 0-17.1 7.5-17.1 17.1v15.8h47.3v-1.7z" transform="translate(-43.7 -68.45)"></path></g><g transform="translate(46.507 55.464)scale(1.1862)"><linearGradient id="b" x1="0" x2="1" y1="0" y2="0" gradientUnits="objectBoundingBox"><stop offset="0%" stop-color="#0f3054"></stop><stop offset="49.8%" stop-color="#3b8dcb"></stop><stop offset="100%" stop-color="#0f3054"></stop></linearGradient><path fill="url(#b)" d="M44.6 5.6C33.8 5.6 25 14.4 25 25.2s8.8 19.6 19.6 19.6S64.2 36 64.2 25.2 55.4 5.6 44.6 5.6" transform="translate(-44.6 -25.2)"></path></g><g transform="translate(81.974 112.342)scale(1.1862)"><linearGradient id="c" x1="0" x2="1" y1="0" y2="0" gradientUnits="objectBoundingBox"><stop offset="0%" stop-color="#0f3054"></stop><stop offset="49.8%" stop-color="#3b8dcb"></stop><stop offset="100%" stop-color="#0f3054"></stop></linearGradient><path fill="url(#c)" d="M72.5 72.5h4v1.3h-4z" transform="translate(-74.5 -73.15)"></path></g><g transform="translate(81.983 118.925)scale(1.1862)"><linearGradient id="d" x1="0" x2="1" y1="0" y2="0" gradientUnits="objectBoundingBox"><stop offset="0%" stop-color="#0f3054"></stop><stop offset="49.8%" stop-color="#3b8dcb"></stop><stop offset="100%" stop-color="#0f3054"></stop></linearGradient><path fill="url(#d)" d="M90.6 77.6 89 74.7v-3.2c0-.7-.4-1.4-1-1.8l-2.8-1.6-1.7-2.9c-.4-.6-1-1-1.8-1h-3.3l-2.9-1.6c-.6-.4-1.4-.4-2 0l-2.9 1.6h-3.3c-.7 0-1.4.4-1.8 1L64 68l-3 1.7c-.6.4-1 1-1 1.8v3.4l-1.6 2.8c-.2.3-.3.7-.3 1 0 .4.1.7.3 1l1.6 2.8v3.4c0 .7.4 1.4 1 1.8l2.9 1.7 1.6 2.8c.4.6 1 1 1.8 1h3.3l2.9 1.6c.3.2.7.3 1 .3.3 0 .7-.1 1-.3l2.9-1.6h3.3c.7 0 1.4-.4 1.8-1l1.7-2.9 2.8-1.6c.6-.4 1-1 1-1.8v-3.2l1.7-2.9c.3-.8.3-1.6-.1-2.2m-7.8 6.8c0 .5-.4.9-.9.9H67.2a.9.9 0 0 1-.9-.9v-9.6c0-.5.4-.9.9-.9h4.1V72c0-.3.3-.6.6-.6h5.2c.3 0 .6.3.6.6v1.9h4.1c.5 0 .9.4.9.9v9.6z" transform="translate(-74.507 -78.7)"></path></g><g transform="translate(107.514 99.16)"><linearGradient id="e" x1="-.012" x2="9.438" y1="0" y2="0" gradientUnits="objectBoundingBox"><stop offset="0%" stop-color="#6ee2f5"></stop><stop offset="100%" stop-color="#6454f0"></stop></linearGradient><path fill="url(#e)" d="M222.88 474.85 215 486.66q1.44 1.79 4.57 3.85 3.13 2.06 7.52 3.58 4.38 1.52 9.04 1.52 6.26 0 11.36-1.7t8.68-5.28q3.58-3.58 5.46-8.95 1.88-5.37 1.88-12.71V330.93h-14.32v134.25q0 8.77-4.02 12.44-4.03 3.67-8.15 3.67-4.83 0-8.5-1.7t-5.64-4.74" transform="translate(-239.255 -413.27)"></path></g><g transform="translate(194.959 100.95)"><linearGradient id="f" x1="-.445" x2="3.149" y1="0" y2="0" gradientUnits="objectBoundingBox"><stop offset="0%" stop-color="#6ee2f5"></stop><stop offset="100%" stop-color="#6454f0"></stop></linearGradient><path fill="url(#f)" d="M284.1 415.06q0 12.35 5.64 22.11 5.64 9.75 15.3 15.3 9.67 5.55 21.66 5.55 12.17 0 21.75-5.55t15.21-15.3q5.64-9.76 5.64-22.11 0-12.53-5.64-22.19-5.63-9.67-15.21-15.22-9.58-5.55-21.75-5.55-11.99 0-21.66 5.55-9.66 5.55-15.3 15.22-5.64 9.66-5.64 22.19m14.5 0q0-8.59 3.67-15.3 3.67-6.72 10.02-10.47 6.36-3.76 14.41-3.76 8.06 0 14.41 3.76 6.35 3.75 10.02 10.47 3.67 6.71 3.67 15.3t-3.67 15.22q-3.67 6.62-10.02 10.47-6.35 3.85-14.41 3.85-8.05 0-14.41-3.85-6.35-3.85-10.02-10.47-3.67-6.63-3.67-15.22" transform="translate(-326.7 -415.06)"></path></g><g transform="translate(297.974 73.205)"><linearGradient id="g" x1="-1.384" x2="2.016" y1="0" y2="0" gradientUnits="objectBoundingBox"><stop offset="0%" stop-color="#6ee2f5"></stop><stop offset="100%" stop-color="#6454f0"></stop></linearGradient><path fill="url(#g)" d="M402.42 456.23V316.61H388.1v139.62zm68.91-41.17q0-13.42-5.55-23t-14.76-14.77q-9.22-5.19-20.5-5.19-10.2 0-17.99 5.19-7.79 5.19-12.17 14.77-4.39 9.58-4.39 23 0 13.25 4.39 22.91 4.38 9.67 12.17 14.86 7.79 5.19 17.99 5.19 11.28 0 20.5-5.19 9.21-5.19 14.76-14.86 5.55-9.66 5.55-22.91m-14.5 0q0 9.49-3.84 16.11-3.85 6.62-10.21 10.03-6.35 3.4-14.05 3.4-6.26 0-12.35-3.4-6.09-3.41-10.02-10.03-3.94-6.62-3.94-16.11 0-9.49 3.94-16.11 3.93-6.62 10.02-10.02 6.09-3.4 12.35-3.4 7.7 0 14.05 3.4 6.36 3.4 10.21 10.02 3.84 6.62 3.84 16.11" transform="translate(-429.715 -387.315)"></path></g><g transform="translate(382.014 100.95)"><linearGradient id="h" x1="-3.372" x2="1.852" y1="0" y2="0" gradientUnits="objectBoundingBox"><stop offset="0%" stop-color="#6ee2f5"></stop><stop offset="100%" stop-color="#6454f0"></stop></linearGradient><path fill="url(#h)" d="m494.42 430.99-11.27 6.98q2.32 4.84 6.89 9.49 4.56 4.65 11.19 7.61 6.62 2.95 14.85 2.95 12.71 0 20.5-7.16 7.78-7.16 7.78-17.9 0-7.34-3.49-11.99-3.49-4.66-9.39-7.97-5.91-3.31-13.07-6.17-4.3-1.79-8.23-3.76-3.94-1.97-6.45-4.48-2.5-2.5-2.5-5.72 0-4.12 3.22-6.09 3.22-1.97 7.69-1.97 6.45 0 11.55 3.04 5.1 3.05 8.5 7.7l11.46-7.34q-2.51-4.65-6.98-8.23-4.48-3.58-10.29-5.73-5.82-2.15-12.45-2.15-6.62 0-12.79 2.33-6.18 2.33-10.03 7.16-3.85 4.83-3.85 12.17 0 7.16 3.67 11.9 3.67 4.75 9.13 7.7 5.46 2.95 10.83 5.1 4.83 1.79 9.13 3.85 4.3 2.06 7.07 5.01 2.78 2.96 2.78 7.25 0 4.84-3.49 7.61-3.5 2.77-9.58 2.77-5.01 0-9.22-1.88-4.21-1.87-7.43-5.1-3.22-3.22-5.73-6.98" transform="translate(-513.755 -415.06)"></path></g><g transform="translate(457.369 120.64)"><linearGradient id="i" x1="-4.004" x2=".696" y1="0" y2="0" gradientUnits="objectBoundingBox"><stop offset="0%" stop-color="#6ee2f5"></stop><stop offset="100%" stop-color="#6454f0"></stop></linearGradient><path fill="url(#i)" d="m574.79 495.61 53.7-121.72h-16.11l-25.41 63.73 5.9.71-26.13-64.44h-17.01l31.51 70.71-22.56 51.01z" transform="translate(-589.11 -434.75)"></path></g></svg></svg>